<?xml version="1.0" encoding="UTF-8"?>
<svg id="Capa_1" xmlns="http://www.w3.org/2000/svg" version="1.1" xmlns:xlink="http://www.w3.org/1999/xlink" viewBox="0 0 2065.5 431.2">
  <!-- Generator: Adobe Illustrator 29.4.0, SVG Export Plug-In . SVG Version: 2.1.0 Build 152)  -->
  <defs>
    <style>
      .st0 {
        fill: #93d300;
      }

      .st0, .st1 {
        fill-rule: evenodd;
      }

      .st2 {
        fill: none;
      }

      .st1 {
        fill: #fdfdfd;
      }

      .st3 {
        fill: #93d300;
      }

      .st4 {
        clip-path: url(#clippath);
      }
    </style>
    <clipPath id="clippath">
      <rect class="st2" x="71.7" y="69" width="313.7" height="324.7"/>
    </clipPath>
  </defs>
  <g id="casco">
    <g class="st4">
      <path id="casco_frente" class="st3" d="M381.2,322.7c4.8-30.7,5.1-64.9.7-96.3-.7-4.7-1.4-9.3-2.3-14,0-.1,0-.3,0-.4-4.5-23.9-11.7-44.8-21.5-62.1,0-.1-.2-.3-.3-.4,0,0,0-.1,0-.2-11.9-19.5-27.8-35.9-47-48.8-17.9-12-38.4-20.7-61-26-33.9-7.9-74.2-7.3-107.9,1.5-3.4.9-5.4,4.4-4.5,7.8.9,3.4,4.4,5.4,7.8,4.5,7.5-2,15.4-3.5,23.5-4.6,42.5,8.5,80.4,25.3,109.8,48.7,22.4,17.9,38.3,38.8,44.8,58.9l-86.5-26.6c-18.7-5.7-35-1.3-44.7,12.2-12.1,16.7-10.7,43.1,3.3,62.7,29.7,41.6,63.1,62.1,168.3,102.5-1.1,3.7-2.2,7.1-3.2,9.6-2.5,4.7-21.7,25-35.1,28.7-2.6.7-4.6.7-5.8,0-.2-.1-.3-.2-.5-.3l-26.4-13.2h0s0,0,0,0l-57-28.5h0c-15.4-7.7-52.2-33.5-85.6-66.5-27.5-27.2-60.2-66.7-60.6-101.2,2.8-12.5,7-23.1,12.8-32.1,1.4-2.2,1.3-5.1-.2-7.2l-14.3-19.4c5.4-3,11-5.8,17.4-8.9,3.2-1.5,4.5-5.3,3-8.5-1.5-3.2-5.3-4.5-8.5-3-9.2,4.4-16.7,8.4-24.5,12.8-1.6.9-2.7,2.4-3,4.2-.4,1.8,0,3.6,1.1,5.1l16,21.8c-5.5,9.5-9.6,20.5-12.3,33,0,.1,0,.2,0,.4-1.5,6.8-2.5,14.2-3.2,22-2.1,24.6,0,50.8,1.7,71.8,0,.3,0,.6.1.9.7,5.8,4.3,10.9,9.4,13.6-1.1,4.7-.8,9.6.7,14.3,2.3,6.8,7,12.2,13.3,15.4l160.8,80.4c3.7,1.8,7.8,2.8,11.9,2.8,7.7,0,15.2-3.4,20.4-9.4l21.2,10.6c2.6,1.6,5.6,2.4,8.9,2.4s4.5-.4,7-1.1c17.8-5.1,39.7-28.8,42.9-35.5,0-.1.1-.2.1-.3,1.8-4.4,3.8-10.8,5.4-16.9h0c1.9-7.2,3.3-14,3.7-17.3h0ZM140.9,280.9c8,7.9,16.1,15.4,24.2,22.3l-69.7-34.9h0l-4.6-2.3c-1.7-.8-2.8-2.5-2.9-4.4,0-.2,0-.5,0-.7-1.3-16.2-2.8-35.4-2.4-54.3,12.3,27.4,35.3,54.1,55.6,74.2h0ZM265.3,376l-160.8-80.4c-3.3-1.7-5.8-4.5-7-8.1-.5-1.4-.7-2.8-.7-4.3l183,91.5c-4.1,3-9.7,3.7-14.5,1.3h0ZM286.3,122.6c-21.4-17.1-47-30.8-75.5-40.5,12.4.6,24.5,2.3,35.9,4.9,30.7,7.2,73,25,100.1,69,0,0,0,.1,0,.2,0,.1.1.2.2.4,7.6,13.6,13.5,29.5,17.7,47.7l-27.3-8.4c-5.4-25.2-23.5-51.1-51.2-73.2h0ZM205.6,232.4c-10.7-15.1-12.2-35.7-3.3-47.9,6.5-9,17.3-11.6,30.7-7.5l19.8,6.1-12.6,85.6c-14.1-10.8-24.6-22.3-34.6-36.2h0ZM251.8,276.8l13.2-90,102.6,31.6c.6,3.3,1.1,6.5,1.5,9.8,4.2,30.3,4,63.2-.7,92.7,0,0,0,.1,0,.2-.2,1.8-.9,5.1-1.7,8.8-55.6-21.4-90.3-36.9-115-53h0ZM251.8,276.8"/>
    </g>
    <path id="reflejo_casco" class="st3" d="M118.2,96.6c.8,0,1.5-.1,2.2-.4h.1c3.3-1.3,4.9-5,3.7-8.2-1.2-3.3-4.9-4.9-8.2-3.7,0,0,0,0,0,0-3.3,1.2-4.9,4.9-3.7,8.2,1,2.6,3.4,4.1,5.9,4.1h0ZM113,112.8c-2.1-2.8-6.1-3.4-8.9-1.3-2.8,2.1-3.4,6.1-1.3,8.9l9.3,12.6c1.2,1.6,3.1,2.6,5.1,2.6,1.4,0,2.7-.4,3.8-1.2,2.8-2.1,3.4-6.1,1.3-8.9l-9.3-12.6ZM125.6,111.9l9.3,12.6c1.2,1.6,3.1,2.6,5.1,2.6,1.4,0,2.7-.4,3.8-1.2,2.8-2.1,3.4-6.1,1.3-8.9l-9.3-12.6c-2.1-2.8-6.1-3.4-8.9-1.3-2.8,2.1-3.4,6.1-1.3,8.9h0ZM280.3,351.9c1.5.8,3.3.9,4.8.3,1.6-.5,2.9-1.7,3.7-3.2,1.6-3.1.3-7-2.9-8.5h-.1c-3.1-1.6-6.9-.4-8.5,2.8-1.6,3.1-.3,7,2.9,8.5h.1ZM319.9,371.7c.9.4,1.9.7,2.8.7,2.3,0,4.6-1.3,5.7-3.5,1.6-3.1.3-6.9-2.8-8.5l-23.3-11.7c-3.1-1.6-6.9-.3-8.5,2.8-1.6,3.1-.3,7,2.8,8.5l23.3,11.6ZM319.9,371.7"/>
  </g>
  <g>
    <polygon class="st0" points="497.5 168.6 529.9 282.2 571.8 282.2 604.3 168.1 604.3 337.1 654.1 337.1 654.1 83.9 592.4 83.9 550.8 227.7 509.3 83.9 447.6 83.9 447.6 337.1 497.5 337.1 497.5 168.6"/>
    <path class="st0" d="M698.3,153.2c-7.5,7.5-11.2,18.3-11.2,32.5v107.6c0,14.2,3.7,25.1,11.2,32.5,7.5,7.5,19.9,11.2,37.4,11.2h47.1c17.4,0,29.9-3.7,37.5-11.2,7.5-7.5,11.3-18.4,11.3-32.5v-107.6c0-14.2-3.8-25-11.3-32.5-7.6-7.5-20-11.3-37.5-11.3h-47.1c-17.5,0-29.9,3.8-37.4,11.3ZM766.5,297.6h-14.6c-7.2,0-10.7-3.2-10.7-9.8v-96.6c0-6.5,3.5-9.8,10.7-9.8h14.6c7.1,0,10.8,3.3,10.8,9.8v96.6c0,6.6-3.6,9.8-10.8,9.8Z"/>
    <path class="st0" d="M949.8,141.9h-25.7v-36.9h-55v36.9h-20.6v39.5h20.6v111.3c0,29.6,16.6,44.4,49.8,44.4h30.9v-39.5h-15.1c-7.1,0-10.7-3.3-10.7-9.9v-106.3h25.7v-39.5Z"/>
    <path class="st0" d="M977.9,153.2c-7.5,7.5-11.2,18.3-11.2,32.5v107.6c0,14.2,3.7,25.1,11.2,32.5,7.5,7.5,19.9,11.2,37.4,11.2h47.1c17.4,0,29.9-3.7,37.5-11.2,7.5-7.5,11.3-18.4,11.3-32.5v-107.6c0-14.2-3.8-25-11.3-32.5-7.6-7.5-20-11.3-37.5-11.3h-47.1c-17.5,0-29.9,3.8-37.4,11.3ZM1046.1,297.6h-14.6c-7.2,0-10.7-3.2-10.7-9.8v-96.6c0-6.5,3.5-9.8,10.7-9.8h14.6c7.1,0,10.8,3.3,10.8,9.8v96.6c0,6.6-3.6,9.8-10.8,9.8Z"/>
    <polygon class="st1" points="1279.2 83.9 1143.9 83.9 1143.9 337.1 1200.4 337.1 1200.4 236.9 1266.5 236.9 1266.5 197.4 1200.4 197.4 1200.4 123.4 1279.2 123.4 1279.2 83.9"/>
    <path class="st1" d="M1310.2,153.2c-7.5,7.5-11.2,18.3-11.2,32.5v107.6c0,14.2,3.7,25.1,11.2,32.5,7.5,7.5,19.9,11.2,37.4,11.2h47.1c17.4,0,29.9-3.7,37.5-11.2,7.5-7.5,11.3-18.4,11.3-32.5v-107.6c0-14.2-3.8-25-11.3-32.5-7.6-7.5-20-11.3-37.5-11.3h-47.1c-17.5,0-29.9,3.8-37.4,11.3ZM1378.4,297.6h-14.6c-7.2,0-10.7-3.2-10.7-9.8v-96.6c0-6.5,3.5-9.8,10.7-9.8h14.6c7.1,0,10.8,3.3,10.8,9.8v96.6c0,6.6-3.6,9.8-10.8,9.8Z"/>
    <path class="st1" d="M1542.3,150.1c-6.6,5.4-11,12.4-13.1,21.1v-29.3h-54.1v195.2h55v-120.3c0-18.3,8.2-27.4,24.9-27.4h19.4v-47.5h-6.7c-10.3,0-18.7,2.7-25.3,8.2Z"/>
    <path class="st1" d="M1676.4,284.8c0,8.6-4,12.8-11.9,12.8h-9c-7.2,0-10.8-3.3-10.8-10v-145.7h-55.4v151.4c0,29.2,15.5,43.8,46.4,43.8h9.4c17.7,0,28.4-6.9,32.1-20.8v20.8h54.2v-195.2h-55.1v142.9Z"/>
    <path class="st1" d="M1915.2,147.7c-6.3,3.8-10.2,9.1-12,15.7-6.6-14.2-20.8-21.4-42.4-21.4h-9.9c-17.5,0-28,7.2-31.6,21.4v-21.4h-54.1v195.2h55v-142.9c0-8.5,3.8-12.8,11.4-12.8h9.5c7.1,0,10.7,3.4,10.7,10v145.7h55.4v-142.9c0-8.5,3.8-12.8,11.4-12.8h9.5c7.1,0,10.7,3.4,10.7,10v145.7h55v-151.4c0-29.2-15.5-43.8-46.3-43.8h-9.5c-9,0-16.6,2-22.7,5.7Z"/>
  </g>
</svg>