<?xml version="1.0" encoding="UTF-8"?>
<svg id="Capa_2" data-name="Capa 2" xmlns="http://www.w3.org/2000/svg" viewBox="0 0 481.01 481.69">
  <defs>
    <style>
      .cls-1 {
        fill: #d52b1e;
      }
    </style>
  </defs>
  <g id="Capa_1-2" data-name="Capa 1">
    <path class="cls-1" d="M142.84,73.21C79.67,114.89,13.52,143.08,1.22,148.19l311.93,218.47c.32.22.51.59.5.99h0c0,.41-.2.78-.54,1l-13.92,9.17c-.41.26-.93.26-1.33-.01l-113.92-78.41c-43.47-29.37-91.41-23.13-123.97-12.73-31.25,9.98-54.28,25.25-59.98,29.24,2.73,1.91,235.64,164.68,237.2,165.79,5.03-4.72,39.15-35.88,110.87-80.13,75.62-46.59,120.21-62.87,130.53-66.32L166.09,116.4c-.32-.22-.51-.59-.51-.98h0c0-.41.2-.78.53-1l13.3-8.82c.4-.26.91-.26,1.31,0,.42.27,42.32,27.78,117.64,80.81,70.62,49.68,169.11-9.9,182.66-18.55C478.15,165.89,241.55,1.05,240.05,0c-5.92,5.05-49.56,41.87-97.21,73.21Z"/>
  </g>
</svg>