<?xml version="1.0" encoding="UTF-8"?>
<svg id="Capa_2" data-name="Capa 2" xmlns="http://www.w3.org/2000/svg" viewBox="0 0 525.41 508.18">
  <defs>
    <style>
      .cls-1 {
        fill: #0a53a0;
      }
    </style>
  </defs>
  <g id="Capa_1-2" data-name="Capa 1">
    <path class="cls-1" d="M0,109.82l199.54,92.59s27.28-12.92,53.83-25.12c0,0,5.03-2.87,5.03-8.61,0,0,0-6.46-6.46-9.33,0,0-89.72-41.63-179.44-82.54L233.28,2.87l13.64-2.87,12.92,2.87,241.17,111.25s24.4,11.48,24.4,26.56c0,0,0,15.07-24.4,25.84l-188.77,86.85,188.77,86.85s24.4,10.77,24.4,27.27c0,0,0,14.36-24.4,26.56l-241.17,109.82s-5.02,4.31-12.92,4.31l-13.64-4.31-160.78-73.21,179.44-81.83,6.46-9.33s0-4.31-5.02-9.33l-53.83-24.4L0,398.36v-104.79l86.85-40.2L0,214.61v-104.8Z"/>
  </g>
</svg>